# xmcd CD database file
#
# Track frame offsets:
#	182
#	13665
#	26777
#	42482
#	56335
#	70150
#	82830
#	95840
#	111160
#	123535
#	136435
#	148252
#	161277
#	171735
#	183237
#	195537
#	209017
#	223910
#	236482
#	251417
#	265450
#	279957
#
# Disc length: 3918 seconds
#
# Revision: 0
# Processed by: cddbd v1.5.2PL0 Copyright (c) Steve Scherf et al.
# Submitted via: CDex 1.51
#
DISCID=520f4c16
DTITLE=Cootie Williams - An Introduction to Cootie Williams
DYEAR=1995
DGENRE=Jazz
TTITLE0=Duke Ellington and his Orchestra - Ring Dem Bells
TTITLE1=The Harlem Footwarmers - Sweet Chariot
TTITLE2=Duke Ellington and his Orchestra - Echoes of the Jungle
TTITLE3=Duke Ellington and his Orchestra - Echoes of Harlem
TTITLE4=Barnie Bigard and his Jazzopators - Clouds In My Heart
TTITLE5=Barnie Bigard and his Jazzopators - Stompy Jones
TTITLE6=Cootie Williams and the Rug Cutters - Digga Digga Doo
TTITLE7=Lionel Hampton and his Orchestra - Ring Dem Bells
TTITLE8=Cootie Williams and the Rug Cutters - Have A heart
TTITLE9=Duke Ellington and his Orchestra - Riding On A Blue Note
TTITLE10=Cootie Williams and the Rug Cutters - A Lesson in C
TTITLE11=Cootie Williams and the Rug Cutters - Ol' Man River
TTITLE12=Cootie Williams and the Rug Cutters - The Boys from Harlem
TTITLE13=Cootie Williams and the Rug Cutters - Mobile Blues
TTITLE14=Duke Ellington and his Orchestra - Doin' The Voom Voom
TTITLE15=Duke Ellington and his Orchestra - Country Gal
TTITLE16=Duke Ellington and his Orchestra - Concerto for Cootie
TTITLE17=Duke Ellington and his Orchestra - Rumpus In Richmond
TTITLE18=Duke Ellington and his Orchestra - In A Mellotone
TTITLE19=Benny Goodman and his Sextet - Breakfast Feud
TTITLE20=Cootie Williams and his Orch - West End Blues
TTITLE21=Coleman Hawkin's and Leonard Feather's Esquire All Stars - Boff Boff ( Mop Mop)
EXTD=YEAR: 1995
EXTT0=
EXTT1=
EXTT2=
EXTT3=
EXTT4=
EXTT5=
EXTT6=
EXTT7=
EXTT8=
EXTT9=
EXTT10=
EXTT11=
EXTT12=
EXTT13=
EXTT14=
EXTT15=
EXTT16=
EXTT17=
EXTT18=
EXTT19=
EXTT20=
EXTT21=
PLAYORDER=
